# xmcd
#
# Track frame offsets: 
#        150
#        11645
#        23916
#        39540
#        56275
#        70664
#        81885
#        96598
#        115007
#        125797
#        135931
#        152349
#        166263
#        177320
#        189584
#        202121
#
# Disc length: 2834 seconds
#
# Revision: 0
# Processed by: cddbd v1.5.2PL0 Copyright (c) Steve Scherf et al.
# Submitted via: ExactAudioCopy v0.99pb5
#
DISCID=d10b1010
DTITLE=Lawrence Reynolds - He Comes From Alabama
DYEAR=2009
DGENRE=Country
TTITLE0=Survivor
TTITLE1=He Comes From Alabama
TTITLE2=That Old Red River
TTITLE3=My Heart Won't Leave Me Alone
TTITLE4=Haggard And Jones
TTITLE5=Grandpa's Song
TTITLE6=I Hope You Choke
TTITLE7=Hell Must Be Like Today
TTITLE8=High As Bill Monroe
TTITLE9=Never Look Back
TTITLE10=Them Old Hank Williams Songs
TTITLE11=Watch Me Die
TTITLE12=She Won't Talk To Me
TTITLE13=Mama Sure Loves You
TTITLE14=There Ain't Enough Whiskey
TTITLE15=Around The Clock
EXTD=
EXTT0=
EXTT1=
EXTT2=
EXTT3=
EXTT4=
EXTT5=
EXTT6=
EXTT7=
EXTT8=
EXTT9=
EXTT10=
EXTT11=
EXTT12=
EXTT13=
EXTT14=
EXTT15=
PLAYORDER=
